<!--?xml version="1.0" standalone="no"?-->
              <svg id="sw-js-blob-svg" viewBox="0 0 100 100" xmlns="http://www.w3.org/2000/svg" version="1.1">
                    <defs> 
                        <linearGradient id="sw-gradient" x1="0" x2="1" y1="1" y2="0">
                            <stop id="stop1" stop-color="rgba(248, 117, 55, 1)" offset="0%"></stop>
                            <stop id="stop2" stop-color="rgba(250, 133, 60, 1)" offset="100%"></stop>
                        </linearGradient>
                    </defs>
                <path fill="url(#sw-gradient)" d="M17.4,-19.5C19.4,-19.1,15.7,-10.6,15.7,-3.8C15.7,3,19.3,8.1,19.2,13.6C19,19.1,15.1,25,10.5,25C5.9,25,0.5,19.1,-4.1,15.6C-8.7,12,-12.6,10.7,-18.7,7.3C-24.9,3.9,-33.4,-1.8,-35,-8.5C-36.6,-15.2,-31.3,-23.1,-24.3,-22.7C-17.3,-22.2,-8.7,-13.5,-0.5,-12.9C7.7,-12.3,15.4,-19.9,17.4,-19.5Z" width="100%" height="100%" transform="translate(50 50)" stroke-width="0" style="transition: all 0.3s ease 0s;"></path>
              </svg>