<?xml version="1.0" encoding="UTF-8"?>
<svg version="1.1" xmlns="http://www.w3.org/2000/svg" width="512" height="512">
<path d="M0 0 C1.51154809 -0.01194629 1.51154809 -0.01194629 3.0536325 -0.02413392 C4.71120869 -0.00665687 4.71120869 -0.00665687 6.40227127 0.01117325 C7.5776685 0.00775555 8.75306572 0.00433785 9.96408105 0.00081658 C13.22753147 -0.00463828 16.49034838 0.00788218 19.75372386 0.02792883 C23.27243206 0.04518676 26.79111018 0.03935831 30.30984879 0.03631973 C36.40656171 0.03422131 42.50310353 0.04678181 48.59977341 0.06927109 C57.41452801 0.10176564 66.2291998 0.11219548 75.04400781 0.11722305 C89.34505547 0.12597971 103.64601191 0.15260533 117.94701004 0.1904335 C131.83990904 0.22714401 145.73278327 0.25546046 159.62572098 0.27246475 C160.48193781 0.27351565 161.33815465 0.27456654 162.22031745 0.27564928 C166.51566321 0.28086939 170.81100914 0.28592423 175.10635519 0.29089689 C210.74617626 0.33237047 246.38589138 0.40282898 282.02562332 0.49219131 C282.02801167 1.07695142 282.03040003 1.66171152 282.03286076 2.26419163 C282.09196887 16.48558434 282.16749184 30.70681037 282.26133823 44.92801762 C282.30632469 51.80526893 282.34573264 58.68246812 282.37205887 65.55981827 C282.39746577 72.19293203 282.43835111 78.8258324 282.48880959 85.45881081 C282.50553505 87.99339998 282.5170138 90.52802922 282.52323723 93.06266594 C282.53281651 96.60428305 282.56080222 100.14530053 282.59325027 103.68677139 C282.59109764 105.26956894 282.59109764 105.26956894 282.58890152 106.88434219 C282.60770874 108.32934853 282.60770874 108.32934853 282.6268959 109.80354691 C282.63150487 110.64145673 282.63611383 111.47936655 282.64086246 112.34266758 C283.11451025 114.98877137 283.94641503 115.84260383 286.02562332 117.49219131 C288.41016967 118.68446449 289.89374823 118.62974883 292.55604935 118.6504097 C293.50959808 118.66019852 294.46314682 118.66998734 295.44559097 118.68007278 C296.49503387 118.68582825 297.54447678 118.69158371 298.62572098 118.69751358 C299.7281665 118.70741318 300.83061203 118.71731277 301.966465 118.72751236 C305.62418314 118.75919515 309.2819143 118.78391158 312.93968582 118.80859756 C315.47031881 118.82916124 318.00094831 118.85015755 320.53157425 118.87157059 C326.5203255 118.9211962 332.50909448 118.96644578 338.49789464 119.00959295 C347.17919902 119.07244795 355.86043135 119.14411507 364.54167557 119.21471786 C376.70295652 119.31280351 388.86427374 119.40160757 401.02562332 119.49219131 C401.02562332 141.93219131 401.02562332 164.37219131 401.02562332 187.49219131 C411.22533035 187.45738663 411.22533035 187.45738663 421.63109207 187.42187881 C425.93773651 187.4116603 430.24436601 187.40203239 434.55101395 187.39453506 C441.38738991 187.38257744 448.22371232 187.36842812 455.06004715 187.34131241 C460.57135289 187.319589 466.08260121 187.3076237 471.59394646 187.30243683 C473.69709362 187.29874019 475.80023763 187.29152164 477.90336037 187.2807312 C480.84807387 187.26622309 483.79254977 187.26421311 486.73729324 187.26514053 C488.04280891 187.25435471 488.04280891 187.25435471 489.37469864 187.24335098 C493.65152448 187.25793562 497.2151856 187.30541351 501.02562332 189.49219131 C503.58371694 193.32933174 503.31293368 196.45721969 503.29977798 200.90561295 C503.30501466 201.77444504 503.31025134 202.64327714 503.31564671 203.53843749 C503.33069503 206.46105644 503.33135292 209.38350106 503.33201981 212.30615616 C503.33963802 214.39698458 503.34806492 216.48781019 503.35724258 218.57863235 C503.3792272 224.26663092 503.38799175 229.95457572 503.39306903 235.64261198 C503.39670777 239.19404714 503.40294528 242.74546812 503.41007042 246.29689789 C503.43457819 258.68036139 503.44761979 271.06378292 503.45116043 283.44726944 C503.45479726 295.00065733 503.48469995 306.55377981 503.52656502 318.10708654 C503.56122294 328.01798047 503.57670809 337.92878625 503.57740647 347.8397404 C503.57820078 353.76277291 503.58701051 359.6855352 503.61540413 365.60850525 C503.64150773 371.17849959 503.64383297 376.7479982 503.62774849 382.31802559 C503.62592789 384.36388667 503.63267952 386.40977575 503.6485672 388.45557594 C503.66891807 391.24591019 503.65854099 394.03449198 503.64035416 396.8248024 C503.65355412 397.63696382 503.66675409 398.44912524 503.68035406 399.28589761 C503.62057888 403.29312913 503.19793806 405.26421772 500.75493813 408.49632359 C498.03936922 410.48213935 497.01636706 411.11469938 493.74185562 411.0934639 C492.50728622 411.10377388 492.50728622 411.10377388 491.24777603 411.11429214 C490.35873077 411.09631577 489.46968552 411.07833939 488.55369949 411.05981827 C487.13345978 411.06091347 487.13345978 411.06091347 485.68452835 411.06203079 C482.56196228 411.0585536 479.44089682 411.01968528 476.31859207 410.98047256 C474.15098256 410.97114493 471.9833625 410.96402859 469.81573868 410.95903397 C464.11579057 410.93996044 458.41648141 410.89085576 452.71678543 410.83551407 C446.89859536 410.78432973 441.08030186 410.76152161 435.26195145 410.73633194 C423.84956163 410.68273804 412.43764565 410.59742029 401.02562332 410.49219131 C401.03672638 411.69631165 401.04782944 412.90043198 401.05926895 414.1410408 C401.16060206 425.48554752 401.23556833 436.82996248 401.28468418 448.17481899 C401.3107841 454.00744544 401.34619023 459.8397067 401.40282059 465.67212296 C401.45712496 471.30016865 401.48704088 476.92786298 401.50000954 482.55615044 C401.50925215 484.70400207 401.52730083 486.85183436 401.55427361 488.99953651 C401.59054223 492.00687041 401.59556948 495.01275027 401.59325027 498.02026749 C401.61122665 498.90931274 401.62920303 499.798358 401.64772415 500.71434402 C401.64085083 501.53739029 401.63397751 502.36043655 401.6268959 503.20842361 C401.63150487 503.91912601 401.63611383 504.6298284 401.64086246 505.36206722 C400.66254868 508.74925378 398.70164096 510.26486925 396.02562332 512.49219131 C392.83800977 513.11778647 392.83800977 513.11778647 389.15899181 513.11860371 C388.47738313 513.12557131 387.79577445 513.13253892 387.09351096 513.13971767 C384.80435525 513.15699409 382.51688497 513.13858167 380.2277565 513.1203804 C378.57223922 513.12542443 376.9167274 513.13265216 375.26122814 513.14187855 C370.70803338 513.16084811 366.15537399 513.14854073 361.60219252 513.13115561 C356.69347175 513.11780977 351.78483078 513.13320863 346.87611771 513.14497757 C337.25869346 513.16337893 327.64147207 513.15482536 318.0240541 513.13688935 C310.21002362 513.12287768 302.39604829 513.11896745 294.58200645 513.12233162 C293.47091894 513.12280906 292.35983142 513.1232865 291.21507459 513.12377841 C288.95810817 513.12480472 286.70114176 513.12586007 284.44417537 513.12694418 C264.47689926 513.13551619 244.50972126 513.11881952 224.54246902 513.08911514 C205.15440628 513.06027267 185.76648484 513.0531954 166.37840652 513.06860733 C145.2791961 513.08535644 124.18005281 513.08941718 103.08084065 513.07189697 C100.83236858 513.07005253 98.58389651 513.0682178 96.33542442 513.0663929 C95.22905399 513.06548081 94.12268356 513.06456872 92.98278676 513.06362899 C85.17494045 513.05801586 77.36712684 513.06133796 69.5592823 513.06793785 C60.04879126 513.07565763 50.53843948 513.06896734 41.02797657 513.04376281 C36.17281283 513.03123667 31.31786627 513.02515887 26.46269417 513.03630447 C22.0221238 513.04630609 17.5819876 513.03797492 13.14147032 513.01472329 C11.5312032 513.0095412 9.92089753 513.0111666 8.31064694 513.02011795 C6.12870984 513.03124248 3.94825898 513.01796001 1.76641369 512.99834919 C-0.05445667 512.99656197 -0.05445667 512.99656197 -1.9121123 512.99473864 C-4.97437668 512.49219131 -4.97437668 512.49219131 -7.36421579 510.98256725 C-9.6448043 507.45526585 -9.52551472 504.20557085 -9.47774124 500.14001846 C-9.483555 499.28566113 -9.48936877 498.43130381 -9.49535871 497.55105686 C-9.5100364 494.66852267 -9.49603734 491.78682965 -9.48231125 488.90430069 C-9.48691709 486.8247954 -9.49326786 484.74529337 -9.50122023 482.66579819 C-9.51798015 476.93607688 -9.50963693 471.20662069 -9.49727535 465.47689819 C-9.48825439 459.30367321 -9.50217988 453.130495 -9.51319504 446.95727921 C-9.52998554 435.55780447 -9.52848569 424.15843829 -9.51754916 412.75896621 C-9.50749602 402.22887003 -9.50485588 391.69880498 -9.50963974 381.16870499 C-9.50994528 380.47084167 -9.51025082 379.77297835 -9.51056562 379.05396765 C-9.51181093 376.22127642 -9.51308452 373.38858519 -9.51440467 370.55589399 C-9.526647 343.97061191 -9.51553682 317.38538395 -9.49401709 290.80011022 C-9.47503395 267.16879576 -9.47673243 243.53756752 -9.49586105 219.90625381 C-9.51726894 193.37031353 -9.52577886 166.83442108 -9.513412 140.29847336 C-9.51212908 137.4708748 -9.51087773 134.64327622 -9.50963974 131.81567764 C-9.50932343 131.11942549 -9.50900712 130.42317335 -9.50868123 129.70582265 C-9.50412693 119.1810672 -9.50946062 108.65634628 -9.51955795 98.13159561 C-9.53097905 86.16721822 -9.52778357 74.20294268 -9.50643498 62.23856926 C-9.49589539 56.1297833 -9.4918522 50.02117266 -9.50503159 43.91238785 C-9.51690112 38.32640497 -9.51048307 32.74076089 -9.48912138 27.154809 C-9.48463216 25.12795632 -9.4869731 23.10107535 -9.49662453 21.07424068 C-9.50869307 18.3305348 -9.49641129 15.58800727 -9.47774124 12.84436417 C-9.49178824 11.64895618 -9.49178824 11.64895618 -9.50611901 10.42939854 C-9.45885783 6.9822625 -9.23519466 4.86983687 -7.25381494 2.00094247 C-4.57961578 0.23090064 -3.18704132 -0.00556203 0 0 Z M230.02562332 205.49219131 C230.02562332 267.20219131 230.02562332 328.91219131 230.02562332 392.49219131 C314.17562332 392.49219131 398.32562332 392.49219131 485.02562332 392.49219131 C485.02562332 330.78219131 485.02562332 269.07219131 485.02562332 205.49219131 C400.87562332 205.49219131 316.72562332 205.49219131 230.02562332 205.49219131 Z " fill="#000000" transform="translate(8.974376678466797,-0.4921913146972656)"/>
<path d="M0 0 C4.93614636 7.349917 7.56078836 16.39019173 10.62109375 24.65234375 C11.15928561 26.09256279 11.69797475 27.53259607 12.23712158 28.97245789 C13.67885717 32.8270836 15.11378912 36.68420643 16.54702377 40.54199982 C18.04168677 44.56284324 19.54121079 48.58187313 21.0402832 52.60107422 C22.87791182 57.52877476 24.71490534 62.45670797 26.54911804 67.38568115 C30.29659783 77.45321745 34.07200194 87.50973261 37.87367058 97.55692482 C39.41954892 101.64537259 40.96006683 105.73584304 42.50037479 109.82639217 C43.70819832 113.03268118 44.91940269 116.2376065 46.13839722 119.43966675 C47.48018056 122.96947724 48.80982465 126.50363339 50.13671875 130.0390625 C50.53223938 131.07012619 50.92776001 132.10118988 51.33526611 133.16349792 C54.69414054 142.17929085 54.69414054 142.17929085 54 147 C52.20006226 149.69990662 50.916227 151.5418865 48 153 C44.49951793 153.38894245 42.58828528 153.35147948 39.53515625 151.52734375 C36.14088935 148.14353684 34.88724325 144.69648556 33.25 140.25 C32.92 139.38834229 32.59 138.52668457 32.25 137.63891602 C31.53677597 135.76919788 30.83067457 133.8967508 30.13085938 132.02197266 C28.93401959 128.8236819 27.71090791 125.6362321 26.484375 122.44921875 C25.65515964 120.27906214 24.82701487 118.10849613 24 115.9375 C23.40300293 114.37660645 23.40300293 114.37660645 22.79394531 112.78417969 C22.42881836 111.81254883 22.06369141 110.84091797 21.6875 109.83984375 C21.36136719 108.97738037 21.03523438 108.11491699 20.69921875 107.22631836 C20 105 20 105 20 102 C4.82 102.33 -10.36 102.66 -26 103 C-30.43938035 117.25148935 -30.43938035 117.25148935 -34.85449219 131.51049805 C-35.41774534 133.30284665 -35.98181816 135.09493796 -36.546875 136.88671875 C-36.82869629 137.81117798 -37.11051758 138.73563721 -37.40087891 139.68811035 C-38.93713237 144.52128937 -40.35099222 148.31039584 -44 152 C-46.85324437 153.42662219 -48.83454549 153.31033868 -52 153 C-54.69990662 151.20006226 -56.5418865 149.916227 -58 147 C-57.6240646 138.85721785 -55.20516637 131.46078946 -52.7578125 123.734375 C-52.31692108 122.32112377 -51.87677508 120.90763982 -51.43731689 119.49394226 C-50.25479105 115.69703037 -49.06229101 111.903323 -47.86754608 108.11024094 C-46.62225735 104.15199306 -45.38490833 100.19126533 -44.14697266 96.23071289 C-42.62210028 91.35361118 -41.09637231 86.47678509 -39.56661987 81.60121155 C-36.38333288 71.45195171 -33.2351491 61.29257581 -30.11937332 51.12239456 C-28.82459571 46.89907528 -27.52451787 42.67738408 -26.22459984 38.45564461 C-25.20091786 35.12942631 -24.18055452 31.80226275 -23.1675415 28.47277832 C-22.04675082 24.78976467 -20.91068171 21.11156198 -19.7734375 17.43359375 C-19.44829163 16.35559006 -19.12314575 15.27758636 -18.78814697 14.16691589 C-14.97394147 1.92904312 -14.97394147 1.92904312 -9.6875 -1.5 C-5.64889544 -2.25136829 -3.70170112 -1.85085056 0 0 Z M-6 36 C-8.00194252 42.1904348 -9.99483349 48.38373 -11.98144531 54.57910156 C-12.65839686 56.68654325 -13.33742111 58.79332031 -14.01855469 60.89941406 C-14.99699277 63.92601116 -15.96796274 66.95491668 -16.9375 69.984375 C-17.39684937 71.39707672 -17.39684937 71.39707672 -17.86547852 72.83831787 C-18.14576904 73.71892883 -18.42605957 74.59953979 -18.71484375 75.50683594 C-19.08790649 76.66599518 -19.08790649 76.66599518 -19.46850586 77.84857178 C-20.15988824 80.27785841 -20.15988824 80.27785841 -20 84 C-9.11 84 1.78 84 13 84 C4.22430438 59.9146377 4.22430438 59.9146377 -5 36 C-5.33 36 -5.66 36 -6 36 Z " fill="#000000" transform="translate(322,223)"/>
<path d="M0 0 C8.28100042 9.17509301 12.93136082 20.25708411 12.51953125 32.68359375 C11.51953125 36.30859375 11.51953125 36.30859375 9.51953125 38.68359375 C5.88791665 40.29764468 3.66746906 40.94448871 -0.23046875 40.05859375 C-3.74277971 37.91218149 -5.20628243 35.76728255 -6.21875 31.765625 C-6.40824219 30.68667969 -6.59773438 29.60773438 -6.79296875 28.49609375 C-8.38998036 21.23620934 -10.53774693 15.39014866 -16.84765625 11.05859375 C-24.08449189 7.18721663 -30.33341691 5.95832068 -38.33203125 7.9375 C-41.4825176 9.03157799 -43.79713778 10.72018085 -46.48046875 12.68359375 C-47.14046875 12.68359375 -47.80046875 12.68359375 -48.48046875 12.68359375 C-48.90972656 13.56724609 -48.90972656 13.56724609 -49.34765625 14.46875 C-50.48046875 16.68359375 -50.48046875 16.68359375 -51.55078125 18.3671875 C-55.24737036 24.51447827 -55.34805891 30.6727642 -54.48046875 37.68359375 C-52.69787875 43.63191547 -49.12026173 48.43512994 -43.79370117 51.72558594 C-38.58625844 54.48661058 -33.86014179 55.50158841 -28.04296875 56.18359375 C-21.32046531 57.1103227 -15.3814542 58.13493735 -9.48046875 61.68359375 C-8.40796875 62.32296875 -7.33546875 62.96234375 -6.23046875 63.62109375 C3.242669 70.72594706 10.03330383 80.19377411 12.08984375 91.94140625 C13.36523557 104.0711965 11.61439847 115.11727361 4.53125 125.21484375 C-3.59535616 135.1876886 -13.65830502 141.19696607 -26.48046875 142.68359375 C-38.89469527 143.91403036 -50.36764737 139.55088647 -60.10546875 132.05859375 C-67.68745384 125.19954212 -72.75368749 115.52677009 -73.828125 105.41015625 C-74.05465304 100.24067014 -74.19319939 96.82828236 -71.41796875 92.37109375 C-67.70770197 90.2396639 -65.69892766 90.00562714 -61.48046875 90.68359375 C-58.07590807 92.77792974 -56.70040505 93.9446446 -55.546875 97.8203125 C-55.38058594 98.99207031 -55.21429688 100.16382813 -55.04296875 101.37109375 C-53.62950431 108.88354012 -51.60497818 114.71194199 -45.23046875 119.3046875 C-38.55095644 123.18275961 -32.56455339 124.85914793 -24.828125 123.0703125 C-17.85362257 120.89855385 -13.30055117 117.98890025 -9.48046875 111.68359375 C-6.57258311 105.41346535 -5.65745283 99.39615569 -7.48046875 92.68359375 C-8.38931202 90.50845421 -9.39203149 88.46661032 -10.54296875 86.41015625 C-11.48046875 84.68359375 -11.48046875 84.68359375 -12.48046875 81.68359375 C-14.27979454 80.61642671 -14.27979454 80.61642671 -16.48046875 79.68359375 C-17.44533203 78.96623047 -17.44533203 78.96623047 -18.4296875 78.234375 C-22.93856834 75.94240868 -27.57101752 75.57421403 -32.54296875 74.87109375 C-44.98896431 72.91710164 -56.64795211 69.57757162 -64.54296875 58.93359375 C-72.96317419 47.28816823 -74.75736623 35.79190602 -73.48046875 21.68359375 C-72.63776909 17.97116013 -71.38097153 14.9674133 -69.48046875 11.68359375 C-69.11824219 10.99394531 -68.75601562 10.30429688 -68.3828125 9.59375 C-62.80189756 -0.26271334 -54.53053273 -6.84269959 -43.91796875 -10.56640625 C-28.16781485 -14.00280346 -12.11048453 -11.34437115 0 0 Z " fill="#000000" transform="translate(457.48046875,233.31640625)"/>
<path d="M0 0 C3.56948603 1.78474301 5.30902293 3.05805281 8.04962158 5.7956543 C8.84605072 6.58644379 9.64247986 7.37723328 10.46304321 8.19198608 C11.32763153 9.06062286 12.19221985 9.92925964 13.08300781 10.82421875 C14.00042755 11.73813385 14.91784729 12.65204895 15.86306763 13.59365845 C18.37571053 16.09719044 20.88199424 18.6069993 23.38691044 21.11825943 C26.0077755 23.74418814 28.63351679 26.36523359 31.25848389 28.98706055 C35.66355808 33.38849745 40.06440091 37.79413216 44.46289062 42.20214844 C49.55336018 47.30351559 54.65101308 52.39761944 59.75243115 57.48803616 C64.1298301 61.85637157 68.50333503 66.22857688 72.87358356 70.6040659 C75.48493675 73.21854221 78.09763454 75.8316363 80.7138443 78.44125366 C83.62649135 81.34707303 86.53092929 84.26096262 89.43457031 87.17578125 C90.30725555 88.04441803 91.1799408 88.91305481 92.07907104 89.80801392 C92.86422089 90.59880341 93.64937073 91.3895929 94.45831299 92.2043457 C95.14630604 92.8930928 95.83429909 93.5818399 96.54314041 94.29145813 C98 96 98 96 98 98 C65.66 98 33.32 98 0 98 C0 65.66 0 33.32 0 0 Z " fill="#000000" transform="translate(307,5)"/>
</svg>
